PathFileType	4	(X/Y/Z)	C:/Users/opensim2020/Desktop/walking_exp_matlab/subject06_walking23_straight_03.trc																																																																																																																																					
DataRate	CameraRate	NumFrames	NumMarkers	Units	OrigDataRate	OrigDataStartFrame	OrigNumFrames																																																																																																																																	
100	100	7	45	mm	100	1787	94																																																																																																																																	
Frame#	Time	LFHD			RFHD			LBHD			RBHD			C7			T10			CLAV			STRN			RBAK			LSHO			LUPA			LELB			LFRM			LWRA			LWRB			LFIN			RSHO			RUPA			RELB			RFRM			RWRA			RWRB			RFIN			LASI			RASI			LPSI			RPSI			LTHI			LKNE			LTIB			LANK			LHEE			LTOE			RTHI			RKNE			RTIB			RANK			RHEE			RTOE			*39			*40			*41			*42			*43			*44		
		X1	Y1	Z1	X2	Y2	Z2	X3	Y3	Z3	X4	Y4	Z4	X5	Y5	Z5	X6	Y6	Z6	X7	Y7	Z7	X8	Y8	Z8	X9	Y9	Z9	X10	Y10	Z10	X11	Y11	Z11	X12	Y12	Z12	X13	Y13	Z13	X14	Y14	Z14	X15	Y15	Z15	X16	Y16	Z16	X17	Y17	Z17	X18	Y18	Z18	X19	Y19	Z19	X20	Y20	Z20	X21	Y21	Z21	X22	Y22	Z22	X23	Y23	Z23	X24	Y24	Z24	X25	Y25	Z25	X26	Y26	Z26	X27	Y27	Z27	X28	Y28	Z28	X29	Y29	Z29	X30	Y30	Z30	X31	Y31	Z31	X32	Y32	Z32	X33	Y33	Z33	X34	Y34	Z34	X35	Y35	Z35	X36	Y36	Z36	X37	Y37	Z37	X38	Y38	Z38	X39	Y39	Z39	X40	Y40	Z40	X41	Y41	Z41	X42	Y42	Z42	X43	Y43	Z43	X44	Y44	Z44	X45	Y45	Z45
																																																																																																																																								
48	0.47	-1.05933	1660.8446	1365.39417	5.4642	1654.30396	1497.46729	-136.08582	1612.30505	1374.28113	-128.26605	1610.63818	1503.68652	-138.44724	1456.03296	1434.18042	-197.09045	1132.36523	1445.92224	-33.47957	1373.63867	1432.53735	-4.97994	1196.75757	1428.56982	-218.21826	1294.22046	1521.1665	-92.22916	1406.17419	1272.03516	-128.80481	1207.14514	1200.16602	-151.12959	1096.6897	1190.11584	-142.91322	945.75922	1168.25525	-88.2677	827.13	1205.74182	-153.88348	826.80957	1176.07312	-120.75456	741.82324	1173.90625	-71.62547	1411.01721	1593.28101	-111.35786	1221.64087	1693.98181	-97.85154	1103.12305	1713.79443	-41.9736	999.35132	1727.40784	65.29671	899.5896	1682.6178	20.42929	877.64209	1726.72986	85.53497	824.81097	1722.36987	-22.37005	963.18518	1342.23816	-29.81428	971.21625	1560.01074	-181.90289	991.04669	1362.20325	-180.34261	1001.28369	1529.38562	-5.87744	662.1488	1280.39453	60.08838	513.80682	1307.22949	-18.23399	273.61734	1320.12476	-56.44799	106.0652	1361.42383	-96.44445	98.60542	1410.19934	74.9095	52.18819	1353.72717	-100.5905	635.22571	1601.46143	-103.34567	509.64435	1573.7168	-190.99832	254.28107	1555.59924	-230.86224	75.78696	1496.49402	-272.29849	56.0422	1450.06677	-81.15703	37.22886	1500.0343	-96.52405	1705.2981	1428.46362	NaN	NaN	NaN	NaN	NaN	NaN	NaN	NaN	NaN	NaN	NaN	NaN	NaN	NaN	NaN
49	0.48	12.526	1658.9342	1365.02905	19.21849	1652.64355	1497.11694	-122.45172	1610.43506	1374.17944	-114.60959	1609.08557	1503.6825	-125.11168	1454.46191	1434.46643	-183.58719	1130.71057	1446.25171	-19.98807	1371.90479	1432.88159	8.33161	1195.04443	1429.34424	-204.89182	1292.91272	1521.85498	-78.74922	1404.09973	1272.28455	-117.90816	1205.55359	1200.56763	-142.24751	1095.62158	1190.32397	-138.30037	944.81775	1167.77795	-87.21617	824.32703	1204.58972	-153.01283	826.31195	1174.92029	-122.8951	740.24023	1172.27734	-57.97161	1409.5979	1593.54614	-96.75225	1220.40991	1694.95642	-81.91441	1102.45508	1715.18237	-23.10345	1000.53619	1727.87854	87.74381	905.43658	1681.93079	43.44285	881.35461	1726.08826	110.69505	831.15137	1721.11206	-8.26759	961.85754	1343.15063	-16.68776	969.49988	1560.96729	-167.8905	989.25482	1362.11108	-167.19872	999.40051	1529.35864	9.10056	661.005	1280.00671	76.11414	513.05914	1307.93213	11.98391	267.69794	1321.27478	-14.36571	97.97756	1363.09167	-52.94872	87.87241	1413.22778	120.43749	52.66911	1355.67029	-91.60212	633.77563	1601.19373	-97.13063	508.19855	1573.62939	-188.43582	253.7029	1555.20935	-230.29437	75.97085	1495.92847	-271.7373	56.24986	1449.3623	-81.0019	37.04933	1500.08789	-82.87813	1703.52661	1428.17688	NaN	NaN	NaN	NaN	NaN	NaN	NaN	NaN	NaN	NaN	NaN	NaN	NaN	NaN	NaN
50	0.49	26.12027	1656.78479	1364.67126	32.96418	1650.76636	1496.80334	-108.87303	1608.30005	1374.11011	-100.74889	1607.2157	1503.5332	-111.41978	1452.67029	1434.72144	-170.20634	1128.81616	1446.64929	-6.40431	1369.9303	1433.16394	21.80477	1193.10498	1430.05066	-191.49486	1291.40796	1522.46289	-65.01292	1401.83435	1272.48218	-106.66405	1203.73425	1201.18848	-133.44614	1094.59607	1190.599	-133.41402	943.99463	1167.41394	-85.86414	821.8269	1203.58203	-151.42542	825.78265	1173.72314	-124.05023	738.82477	1170.9563	-44.28838	1407.96643	1593.75867	-82.01826	1218.99158	1695.86768	-66.02058	1101.52051	1716.45618	-4.18441	1001.70599	1728.45398	109.3537	910.8609	1681.01746	66.22953	884.73975	1725.18457	135.11026	837.23468	1719.75818	5.87891	960.36322	1343.70264	-3.23511	967.49249	1561.7533	-153.95013	987.24695	1362.00293	-153.69302	997.35864	1529.42847	23.68802	659.2569	1279.96301	90.97973	511.58255	1308.62744	42.26205	261.99115	1322.23474	28.1904	90.88432	1364.48547	-10.06328	78.88148	1414.52966	165.78932	54.10452	1357.79639	-82.16936	632.21863	1600.86804	-90.72945	506.66238	1573.50293	-185.33537	253.37495	1555.06226	-229.64285	76.15848	1495.51416	-271.38583	56.75014	1448.85278	-80.57743	37.02568	1500.36279	-69.18073	1701.49719	1427.87219	NaN	NaN	NaN	NaN	NaN	NaN	NaN	NaN	NaN	NaN	NaN	NaN	NaN	NaN	NaN
51	0.5	39.76257	1654.43372	1364.22327	46.79486	1648.68738	1496.35852	-95.17847	1606.00293	1374.04004	-86.93545	1605.18677	1503.43225	-98.01965	1450.45728	1434.755	-156.57619	1126.66394	1446.9967	7.23097	1367.74646	1433.38672	35.37743	1190.97473	1430.69507	-177.75732	1289.48694	1522.87866	-51.19911	1399.38489	1272.61536	-95.6725	1201.97913	1201.25989	-124.41175	1093.51184	1190.81934	-128.21733	943.05725	1167.09546	-83.96241	819.49023	1202.79333	-149.32019	825.38904	1172.82483	-124.19346	737.6087	1169.96326	-30.57189	1406.15894	1593.8938	-67.21911	1217.4613	1696.73828	-50.14912	1100.38477	1717.62769	14.18178	1002.57263	1728.74976	130.19077	915.85858	1680.0769	88.49316	888.00635	1724.51392	158.8374	843.09473	1718.24231	20.12747	958.57635	1343.99866	10.48395	965.25214	1562.33594	-139.79208	984.98041	1362.08472	-140.00746	995.10626	1529.64575	37.66421	656.94067	1280.09753	105.23509	509.34879	1309.20923	72.32779	256.82034	1323.09814	70.73298	85.1186	1365.65295	33.1637	71.24023	1415.6438	210.57289	56.73049	1360.16895	-72.49481	630.54681	1600.5481	-84.18044	505.18823	1573.4762	-182.37706	253.08356	1554.95129	-229.01457	76.42326	1495.19653	-271.04684	57.36739	1448.51611	-80.28053	36.89066	1500.39355	-55.45669	1699.28296	1427.46277	NaN	NaN	NaN	NaN	NaN	NaN	NaN	NaN	NaN	NaN	NaN	NaN	NaN	NaN	NaN
52	0.51	53.42828	1651.94385	1363.77783	60.67163	1646.45642	1495.90967	-81.47897	1603.58093	1373.86023	-73.12948	1602.92419	1503.42908	-84.28175	1448.20032	1434.79431	-142.95583	1124.31848	1447.27454	20.96058	1365.41663	1433.53259	49.05858	1188.69287	1431.12598	-164.0847	1287.35815	1523.21887	-37.43559	1396.82825	1272.72217	-84.52312	1200.11572	1201.55737	-115.228	1092.22998	1191.22803	-122.73978	942.164	1166.93262	-80.72266	817.34729	1201.58435	-146.81447	824.9765	1172.17749	-124.09542	736.67566	1168.66846	-16.85814	1404.13452	1593.98718	-52.3553	1215.72217	1697.4801	-34.33051	1099.08655	1718.67896	32.57409	1003.29285	1729.15845	150.38794	920.44702	1679.13721	109.84705	891.11945	1723.88135	181.87683	848.60504	1716.85449	34.52837	956.53479	1344.11096	24.36079	962.89594	1562.75586	-125.48525	982.49402	1362.10742	-126.13634	992.724	1529.84644	51.13589	653.89288	1280.44495	118.7623	506.50641	1310.40771	101.86916	252.26653	1323.95264	112.20998	80.76421	1366.53186	75.78923	65.3518	1416.67981	254.74692	60.48663	1362.52478	-62.5845	628.78748	1600.2583	-77.07738	503.71765	1573.26331	-179.40834	252.87753	1554.92603	-228.4805	76.83138	1494.98499	-270.76993	58.19837	1448.25098	-80.01752	36.68181	1500.29895	-41.78802	1696.87842	1427.07568	NaN	NaN	NaN	NaN	NaN	NaN	NaN	NaN	NaN	NaN	NaN	NaN	NaN	NaN	NaN
53	0.52	67.05819	1649.31494	1363.26514	74.54724	1644.08923	1495.47009	-67.97195	1600.96252	1373.62329	-59.16371	1600.59839	1503.15332	-70.41132	1445.65454	1434.76758	-129.00296	1121.70679	1447.46362	34.7899	1362.94409	1433.58826	62.88374	1186.29736	1431.51489	-150.30658	1284.92529	1523.45642	-23.60067	1394.1676	1272.78052	-73.07526	1198.13928	1201.99475	-105.93644	1090.87964	1191.51501	-116.78696	941.18854	1166.84973	-78.30196	815.43469	1201.5199	-143.56488	824.6438	1171.63013	-122.89175	735.83252	1167.6814	-3.10786	1401.97241	1593.99011	-37.46738	1213.84583	1698.14563	-18.59185	1097.64624	1719.52637	50.47699	1003.81866	1729.43164	170.13014	924.67737	1678.1416	130.93979	894.02789	1722.83838	204.16867	853.78113	1715.4635	49.15031	954.33954	1344.15369	38.42392	960.39856	1563.04199	-111.11079	979.91541	1362.09143	-112.15757	990.25085	1530.01575	64.00568	650.34814	1280.96021	131.65024	503.254	1311.20654	130.66016	248.38884	1324.87195	153.28836	78.03253	1367.43286	118.58814	60.1389	1417.12476	297.25409	65.34549	1364.65332	-52.3697	627.01245	1600.05066	-69.80384	502.14966	1573.39429	-176.41638	252.81528	1555.03735	-227.81621	77.35278	1494.75391	-270.3353	59.23105	1448.12195	-79.74517	36.51039	1500.21326	-27.98688	1694.37134	1426.65002	NaN	NaN	NaN	NaN	NaN	NaN	NaN	NaN	NaN	NaN	NaN	NaN	NaN	NaN	NaN
54	0.53	80.44843	1646.38147	1362.84192	88.5072	1641.63599	1494.87622	-54.28684	1598.19275	1373.4707	-45.17883	1598.10437	1502.90344	-56.94728	1443.11682	1434.76587	-114.97695	1118.98145	1447.59863	48.65714	1360.39844	1433.56946	76.84332	1183.86829	1431.72937	-136.41325	1282.26428	1523.63416	-9.79211	1391.43176	1272.66296	-61.80764	1196.31616	1201.78723	-96.97829	1089.69238	1191.48474	-110.53596	940.15924	1166.79309	-74.74693	813.54187	1201.14551	-139.72705	824.26587	1171.31824	-121.02404	735.10352	1166.89343	10.69805	1399.65918	1593.94299	-22.48891	1211.80688	1698.75269	-2.94412	1096.07996	1720.30469	67.87908	1004.0329	1729.54749	189.26802	928.45605	1677.14136	151.39677	896.67377	1722.11658	225.11377	858.21143	1713.49048	64.06749	952.05249	1344.17407	52.66049	957.75598	1563.21594	-96.39737	977.20868	1361.99658	-97.94879	987.60822	1530.08362	76.46861	646.40778	1281.51917	144.43437	499.60324	1312.64014	158.46329	245.43111	1325.78735	192.87772	76.77137	1368.08386	159.64894	56.78452	1417.42444	338.12735	71.73337	1366.46045	-41.70128	624.99792	1600.06067	-61.92352	500.49615	1573.505	-173.08119	252.89476	1555.11902	-227.27286	78.1825	1494.76123	-269.81894	60.33386	1447.9646	-79.45966	36.33087	1500.08191	-14.18626	1691.75012	1426.23242	NaN	NaN	NaN	NaN	NaN	NaN	NaN	NaN	NaN	NaN	NaN	NaN	NaN	NaN	NaN
